<svg preserveAspectRatio="none" width="100%" height="100%" overflow="visible" style="display: block;" viewBox="0 0 19 19" fill="none" xmlns="http://www.w3.org/2000/svg">
<g id="sparkle" clip-path="url(#clip0_0_34)">
<path id="Vector" d="M8.99416 1.76346C8.85203 1.88151 8.75565 2.04554 8.72173 2.22716L7.88962 6.6276C7.83052 6.94045 7.67848 7.22822 7.45335 7.45335C7.22822 7.67848 6.94045 7.83052 6.6276 7.88962L2.22716 8.72173C2.04554 8.75565 1.88151 8.85203 1.76346 8.99416C1.64542 9.1363 1.5808 9.31524 1.5808 9.5C1.5808 9.68476 1.64542 9.8637 1.76346 10.0058C1.88151 10.148 2.04554 10.2443 2.22716 10.2783L6.6276 11.1104C6.94045 11.1695 7.22822 11.3215 7.45335 11.5466C7.67848 11.7718 7.83052 12.0595 7.88962 12.3724L8.72173 16.7728C8.75565 16.9545 8.85203 17.1185 8.99416 17.2365C9.1363 17.3546 9.31524 17.4192 9.5 17.4192C9.68476 17.4192 9.8637 17.3546 10.0058 17.2365C10.148 17.1185 10.2443 16.9545 10.2783 16.7728L11.1104 12.3724C11.1695 12.0595 11.3215 11.7718 11.5466 11.5466C11.7718 11.3215 12.0595 11.1695 12.3724 11.1104L16.7728 10.2783C16.9545 10.2443 17.1185 10.148 17.2365 10.0058C17.3546 9.8637 17.4192 9.68476 17.4192 9.5C17.4192 9.31524 17.3546 9.1363 17.2365 8.99416C17.1185 8.85203 16.9545 8.75565 16.7728 8.72173L12.3724 7.88962C12.0595 7.83052 11.7718 7.67848 11.5466 7.45335C11.3215 7.22822 11.1695 6.94045 11.1104 6.6276L10.2783 2.22716C10.2443 2.04554 10.148 1.88151 10.0058 1.76346C9.8637 1.64542 9.68476 1.5808 9.5 1.5808C9.31524 1.5808 9.1363 1.64542 8.99416 1.76346Z" stroke="var(--stroke-0, #00BFA6)" stroke-width="2" stroke-linecap="round"/>
</g>
<defs>
<clipPath id="clip0_0_34">
<rect width="19" height="19" fill="white"/>
</clipPath>
</defs>
</svg>
