<svg xmlns="http://www.w3.org/2000/svg" width="144" height="48" viewBox="0 0 144 48" fill="none">
  <rect x="0.5" y="0.5" width="143" height="47" rx="6.5" fill="black"/>
  <rect x="0.5" y="0.5" width="143" height="47" rx="6.5" stroke="#A6A6A6"/>
  <path d="M97.831 23.0409V25.7902H96.1078V27.5931H97.831V33.7191C97.831 35.8109 98.7773 36.6476 101.158 36.6476C101.576 36.6476 101.975 36.5978 102.323 36.538V34.755C102.025 34.7849 101.835 34.8048 101.507 34.8048C100.441 34.8048 99.9726 34.3068 99.9726 33.1712V27.5931H102.323V25.7902H99.9726V23.0409H97.831Z" fill="white"/>
  <path d="M108.388 36.797C111.556 36.797 113.498 34.6753 113.498 31.1591C113.498 27.6628 111.546 25.5312 108.388 25.5312C105.22 25.5312 103.268 27.6628 103.268 31.1591C103.268 34.6753 105.21 36.797 108.388 36.797ZM108.388 34.8944C106.525 34.8944 105.479 33.5298 105.479 31.1591C105.479 28.8083 106.525 27.4337 108.388 27.4337C110.241 27.4337 111.297 28.8083 111.297 31.1591C111.297 33.5198 110.241 34.8944 108.388 34.8944Z" fill="white"/>
  <path d="M115.16 36.5878H117.301V30.1829C117.301 28.6589 118.447 27.6329 120.071 27.6329C120.449 27.6329 121.087 27.7027 121.266 27.7624V25.6507C121.037 25.5909 120.628 25.5611 120.31 25.5611C118.895 25.5611 117.69 26.338 117.381 27.4038H117.222V25.7403H115.16V36.5878Z" fill="white"/>
  <path d="M126.583 27.354C128.167 27.354 129.203 28.4597 129.253 30.163H123.774C123.894 28.4696 125 27.354 126.583 27.354ZM129.243 33.6593C128.845 34.506 127.958 34.9741 126.663 34.9741C124.95 34.9741 123.844 33.7689 123.774 31.8663V31.7468H131.434V30.9997C131.434 27.5931 129.612 25.5312 126.593 25.5312C123.535 25.5312 121.593 27.7325 121.593 31.1989C121.593 34.6653 123.496 36.797 126.603 36.797C129.084 36.797 130.817 35.6017 131.305 33.6593H129.243Z" fill="white"/>
  <path d="M83.7867 32.582C83.9519 35.2457 86.1716 36.9492 89.4754 36.9492C93.0062 36.9492 95.2156 35.1631 95.2156 32.3136C95.2156 30.0732 93.9561 28.8343 90.9001 28.1219L89.2585 27.7193C87.3176 27.265 86.533 26.6559 86.533 25.5925C86.533 24.2504 87.7512 23.3728 89.5786 23.3728C91.3131 23.3728 92.5107 24.2297 92.7275 25.6028H94.9782C94.844 23.0941 92.6346 21.3286 89.6096 21.3286C86.3574 21.3286 84.1894 23.0941 84.1894 25.7474C84.1894 27.9361 85.4179 29.237 88.1126 29.8667L90.0329 30.3313C92.0048 30.7959 92.872 31.4773 92.872 32.613C92.872 33.9345 91.5092 34.8946 89.6509 34.8946C87.6583 34.8946 86.2748 33.9964 86.0787 32.582H83.7867Z" fill="white"/>
  <path d="M61.6019 25.5611C60.1277 25.5611 58.8527 26.2982 58.1953 27.5333H58.0359V25.7403H55.974V40.1937H58.1156V34.9443H58.2849C58.8527 36.0898 60.0779 36.7671 61.6218 36.7671C64.3611 36.7671 66.1043 34.6056 66.1043 31.1591C66.1043 27.7126 64.3611 25.5611 61.6019 25.5611ZM60.9943 34.8446C59.2013 34.8446 58.0757 33.4302 58.0757 31.1691C58.0757 28.898 59.2013 27.4835 61.0043 27.4835C62.8171 27.4835 63.9029 28.8681 63.9029 31.1591C63.9029 33.4601 62.8171 34.8446 60.9943 34.8446Z" fill="white"/>
  <path d="M73.5981 25.5611C72.1238 25.5611 70.8488 26.2982 70.1914 27.5333H70.0321V25.7403H67.9701V40.1937H70.1117V34.9443H70.2811C70.8488 36.0898 72.074 36.7671 73.618 36.7671C76.3572 36.7671 78.1004 34.6056 78.1004 31.1591C78.1004 27.7126 76.3572 25.5611 73.5981 25.5611ZM72.9904 34.8446C71.1975 34.8446 70.0719 33.4302 70.0719 31.1691C70.0719 28.898 71.1975 27.4835 73.0004 27.4835C74.8133 27.4835 75.899 28.8681 75.899 31.1591C75.899 33.4601 74.8133 34.8446 72.9904 34.8446Z" fill="white"/>
  <path d="M52.1316 36.5878H54.5887L49.2098 21.69H46.7217L41.3428 36.5878H43.7173L45.0905 32.6336H50.7688L52.1316 36.5878ZM47.847 24.3949H48.0225L50.1803 30.6927H45.6789L47.847 24.3949Z" fill="white"/>
  <path d="M42.7812 10.4532V17.64H45.3761C47.5177 17.64 48.7578 16.3202 48.7578 14.0242C48.7578 11.7631 47.5077 10.4532 45.3761 10.4532H42.7812ZM43.8969 11.4692H45.2516C46.7407 11.4692 47.6223 12.4155 47.6223 14.0392C47.6223 15.6877 46.7557 16.624 45.2516 16.624H43.8969V11.4692Z" fill="white"/>
  <path d="M52.5559 17.7446C54.1397 17.7446 55.1109 16.6838 55.1109 14.9257C55.1109 13.1775 54.1347 12.1117 52.5559 12.1117C50.9721 12.1117 49.996 13.1775 49.996 14.9257C49.996 16.6838 50.9671 17.7446 52.5559 17.7446ZM52.5559 16.7934C51.6246 16.7934 51.1016 16.111 51.1016 14.9257C51.1016 13.7503 51.6246 13.063 52.5559 13.063C53.4823 13.063 54.0102 13.7503 54.0102 14.9257C54.0102 16.1061 53.4823 16.7934 52.5559 16.7934Z" fill="white"/>
  <path d="M63.3815 12.2163H62.3107L61.3445 16.3551H61.2598L60.1442 12.2163H59.1182L58.0026 16.3551H57.9229L56.9517 12.2163H55.8659L57.3601 17.64H58.4608L59.5764 13.6457H59.6611L60.7817 17.64H61.8923L63.3815 12.2163Z" fill="white"/>
  <path d="M64.6146 17.64H65.6854V14.4675C65.6854 13.6208 66.1885 13.0929 66.9804 13.0929C67.7722 13.0929 68.1508 13.5262 68.1508 14.3978V17.64H69.2216V14.1288C69.2216 12.8389 68.5542 12.1117 67.3439 12.1117C66.5271 12.1117 65.9892 12.4753 65.7253 13.0779H65.6456V12.2163H64.6146V17.64Z" fill="white"/>
  <path d="M70.9079 17.64H71.9788V10.0996H70.9079V17.64Z" fill="white"/>
  <path d="M76.006 17.7446C77.5897 17.7446 78.5609 16.6838 78.5609 14.9257C78.5609 13.1775 77.5848 12.1117 76.006 12.1117C74.4222 12.1117 73.446 13.1775 73.446 14.9257C73.446 16.6838 74.4172 17.7446 76.006 17.7446ZM76.006 16.7934C75.0746 16.7934 74.5517 16.111 74.5517 14.9257C74.5517 13.7503 75.0746 13.063 76.006 13.063C76.9323 13.063 77.4603 13.7503 77.4603 14.9257C77.4603 16.1061 76.9323 16.7934 76.006 16.7934Z" fill="white"/>
  <path d="M81.7514 16.8282C81.1687 16.8282 80.7454 16.5443 80.7454 16.0562C80.7454 15.5781 81.084 15.3241 81.8311 15.2743L83.1559 15.1896V15.6429C83.1559 16.3152 82.5583 16.8282 81.7514 16.8282ZM81.4775 17.7297C82.1897 17.7297 82.7824 17.4209 83.1061 16.878H83.1908V17.64H84.2217V13.9346C84.2217 12.7891 83.4547 12.1117 82.0951 12.1117C80.8649 12.1117 79.9883 12.7094 79.8788 13.6407H80.9147C81.0342 13.2572 81.4476 13.0381 82.0453 13.0381C82.7774 13.0381 83.1559 13.3618 83.1559 13.9346V14.4027L81.6867 14.4874C80.3967 14.5671 79.6696 15.1299 79.6696 16.1061C79.6696 17.0972 80.4316 17.7297 81.4775 17.7297Z" fill="white"/>
  <path d="M87.8555 17.7297C88.6026 17.7297 89.2351 17.3761 89.5588 16.7834H89.6435V17.64H90.6695V10.0996H89.5987V13.0779H89.519C89.2251 12.4803 88.5976 12.1267 87.8555 12.1267C86.4859 12.1267 85.6043 13.2124 85.6043 14.9257C85.6043 16.6439 86.4759 17.7297 87.8555 17.7297ZM88.1593 13.0879C89.0558 13.0879 89.6186 13.8001 89.6186 14.9307C89.6186 16.0662 89.0608 16.7685 88.1593 16.7685C87.2528 16.7685 86.71 16.0762 86.71 14.9257C86.71 13.7852 87.2578 13.0879 88.1593 13.0879Z" fill="white"/>
  <path d="M97.6132 17.7446C99.197 17.7446 100.168 16.6838 100.168 14.9257C100.168 13.1775 99.192 12.1117 97.6132 12.1117C96.0294 12.1117 95.0533 13.1775 95.0533 14.9257C95.0533 16.6838 96.0245 17.7446 97.6132 17.7446ZM97.6132 16.7934C96.6819 16.7934 96.1589 16.111 96.1589 14.9257C96.1589 13.7503 96.6819 13.063 97.6132 13.063C98.5396 13.063 99.0675 13.7503 99.0675 14.9257C99.0675 16.1061 98.5396 16.7934 97.6132 16.7934Z" fill="white"/>
  <path d="M101.586 17.64H102.656V14.4675C102.656 13.6208 103.159 13.0929 103.951 13.0929C104.743 13.0929 105.122 13.5262 105.122 14.3978V17.64H106.193V14.1288C106.193 12.8389 105.525 12.1117 104.315 12.1117C103.498 12.1117 102.96 12.4753 102.696 13.0779H102.617V12.2163H101.586V17.64Z" fill="white"/>
  <path d="M111.124 10.8666V12.2412H110.263V13.1427H111.124V16.2057C111.124 17.2516 111.597 17.6699 112.788 17.6699C112.997 17.6699 113.196 17.645 113.37 17.6151V16.7236C113.221 16.7386 113.126 16.7485 112.962 16.7485C112.429 16.7485 112.195 16.4995 112.195 15.9317V13.1427H113.37V12.2412H112.195V10.8666H111.124Z" fill="white"/>
  <path d="M114.808 17.64H115.879V14.4725C115.879 13.6507 116.367 13.0979 117.243 13.0979C118 13.0979 118.404 13.5361 118.404 14.4027V17.64H119.474V14.1388C119.474 12.8488 118.762 12.1167 117.607 12.1167C116.79 12.1167 116.217 12.4803 115.953 13.0879H115.869V10.0996H114.808V17.64Z" fill="white"/>
  <path d="M123.337 13.0231C124.129 13.0231 124.647 13.576 124.672 14.4276H121.933C121.993 13.581 122.545 13.0231 123.337 13.0231ZM124.667 16.1758C124.468 16.5991 124.025 16.8332 123.377 16.8332C122.521 16.8332 121.968 16.2306 121.933 15.2793V15.2195H125.763V14.846C125.763 13.1427 124.851 12.1117 123.342 12.1117C121.813 12.1117 120.842 13.2124 120.842 14.9456C120.842 16.6788 121.793 17.7446 123.347 17.7446C124.587 17.7446 125.454 17.147 125.698 16.1758H124.667Z" fill="white"/>
  <path d="M29.7226 24.3608C29.7486 22.3436 30.8319 20.4349 32.5505 19.3783C31.4663 17.8299 29.6504 16.8482 27.7611 16.7891C25.746 16.5776 23.7924 17.9949 22.7656 17.9949C21.7189 17.9949 20.1379 16.8101 18.4354 16.8451C16.2163 16.9168 14.1475 18.1785 13.0679 20.1186C10.7471 24.1367 12.4782 30.0419 14.7013 33.2899C15.8136 34.8803 17.1135 36.6568 18.8145 36.5938C20.479 36.5248 21.1006 35.5324 23.1098 35.5324C25.1003 35.5324 25.6835 36.5938 27.419 36.5538C29.205 36.5248 30.3303 34.9563 31.4036 33.3508C32.2028 32.2176 32.8177 30.9651 33.2257 29.6398C31.1267 28.752 29.725 26.6397 29.7226 24.3608Z" fill="white"/>
  <path d="M26.4446 14.6531C27.4184 13.484 27.8982 11.9814 27.782 10.4644C26.2942 10.6206 24.9199 11.3317 23.9329 12.4559C22.9678 13.5543 22.4655 15.0305 22.5605 16.4896C24.0488 16.5049 25.512 15.8131 26.4446 14.6531Z" fill="white"/>
</svg>