<svg xmlns="http://www.w3.org/2000/svg" width="162" height="48" viewBox="0 0 162 48" fill="none">
  <rect x="0.5" y="0.5" width="161" height="47" rx="4.5" fill="black"/>
  <rect x="0.5" y="0.5" width="161" height="47" rx="4.5" stroke="#A6A6A6"/>
  <path d="M81.7628 26.1013C78.9404 26.1013 76.64 28.2481 76.64 31.2049C76.64 34.1437 78.9404 36.3085 81.7628 36.3085C84.5864 36.3085 86.8868 34.1437 86.8868 31.2049C86.8856 28.2481 84.5852 26.1013 81.7628 26.1013ZM81.7628 34.2997C80.216 34.2997 78.8828 33.0241 78.8828 31.2061C78.8828 29.3689 80.2172 28.1125 81.7628 28.1125C83.3096 28.1125 84.6428 29.3689 84.6428 31.2061C84.6428 33.0229 83.3096 34.2997 81.7628 34.2997ZM70.586 26.1013C67.7636 26.1013 65.4632 28.2481 65.4632 31.2049C65.4632 34.1437 67.7636 36.3085 70.586 36.3085C73.4096 36.3085 75.71 34.1437 75.71 31.2049C75.71 28.2481 73.4096 26.1013 70.586 26.1013ZM70.586 34.2997C69.0392 34.2997 67.706 33.0241 67.706 31.2061C67.706 29.3689 69.0404 28.1125 70.586 28.1125C72.1328 28.1125 73.466 29.3689 73.466 31.2061C73.4672 33.0229 72.1328 34.2997 70.586 34.2997ZM57.2924 27.6685V29.8333H62.474C62.3192 31.0513 61.9136 31.9405 61.2944 32.5585C60.5408 33.3121 59.3612 34.1437 57.2924 34.1437C54.1028 34.1437 51.6092 31.5721 51.6092 28.3825C51.6092 25.1929 54.1028 22.6213 57.2924 22.6213C59.0132 22.6213 60.2696 23.2981 61.1972 24.1681L62.7248 22.6405C61.4288 21.4033 59.7092 20.4565 57.2924 20.4565C52.9232 20.4565 49.25 24.0133 49.25 28.3825C49.25 32.7517 52.9232 36.3085 57.2924 36.3085C59.6504 36.3085 61.43 35.5345 62.8208 34.0849C64.2512 32.6545 64.6964 30.6433 64.6964 29.0197C64.6964 28.5181 64.658 28.0537 64.58 27.6673H57.2924V27.6685ZM111.662 29.3497C111.237 28.2097 109.941 26.1013 107.293 26.1013C104.664 26.1013 102.478 28.1701 102.478 31.2049C102.478 34.0657 104.644 36.3085 107.544 36.3085C109.882 36.3085 111.236 34.8781 111.798 34.0465L110.058 32.8861C109.478 33.7369 108.685 34.2973 107.544 34.2973C106.404 34.2973 105.591 33.7753 105.069 32.7505L111.894 29.9281L111.662 29.3497ZM104.702 31.0513C104.644 29.0785 106.23 28.0741 107.371 28.0741C108.26 28.0741 109.014 28.5193 109.266 29.1565L104.702 31.0513ZM99.1544 36.0001H101.396V20.9989H99.1544V36.0001ZM95.48 27.2425H95.4032C94.9004 26.6425 93.9332 26.1013 92.7164 26.1013C90.164 26.1013 87.8252 28.3441 87.8252 31.2253C87.8252 34.0861 90.164 36.3097 92.7164 36.3097C93.9344 36.3097 94.9004 35.7685 95.4032 35.1505H95.48V35.8849C95.48 37.8373 94.436 38.8813 92.7548 38.8813C91.382 38.8813 90.5312 37.8961 90.1832 37.0645L88.2308 37.8769C88.7912 39.2293 90.2792 40.8925 92.7548 40.8925C95.384 40.8925 97.6076 39.3457 97.6076 35.5753V26.4121H95.4812V27.2425H95.48ZM92.9096 34.2997C91.3628 34.2997 90.068 33.0037 90.068 31.2253C90.068 29.4265 91.3628 28.1125 92.9096 28.1125C94.436 28.1125 95.6348 29.4265 95.6348 31.2253C95.6348 33.0037 94.436 34.2997 92.9096 34.2997ZM122.167 20.9989H116.802V36.0001H119.04V30.3169H122.166C124.647 30.3169 127.088 28.5205 127.088 25.6585C127.088 22.7965 124.648 20.9989 122.167 20.9989ZM122.224 28.2289H119.04V23.0869H122.224C123.898 23.0869 124.849 24.4729 124.849 25.6585C124.849 26.8201 123.898 28.2289 122.224 28.2289ZM136.063 26.0749C134.442 26.0749 132.763 26.7889 132.068 28.3717L134.055 29.2009C134.48 28.3717 135.272 28.1005 136.101 28.1005C137.259 28.1005 138.436 28.7953 138.456 30.0301V30.1849C138.05 29.9533 137.181 29.6065 136.12 29.6065C133.978 29.6065 131.797 30.7837 131.797 32.9833C131.797 34.9909 133.554 36.2833 135.522 36.2833C137.026 36.2833 137.857 35.6077 138.378 34.8157H138.454V35.9737H140.617V30.2221C140.618 27.5605 138.628 26.0749 136.063 26.0749ZM135.792 34.2961C135.06 34.2961 134.036 33.9289 134.036 33.0217C134.036 31.8637 135.31 31.4197 136.411 31.4197C137.394 31.4197 137.858 31.6321 138.456 31.9213C138.282 33.3121 137.085 34.2961 135.792 34.2961ZM148.491 26.4025L145.924 32.9065H145.848L143.184 26.4025H140.772L144.766 35.4925L142.489 40.5493H144.824L150.981 26.4025H148.491ZM128.324 36.0001H130.562V20.9989H128.324V36.0001Z" fill="white"/>
  <path d="M56.9013 12.2913C56.9013 13.2969 56.6037 14.0973 56.0073 14.6949C55.3305 15.4053 54.4473 15.7605 53.3625 15.7605C52.3233 15.7605 51.4389 15.4005 50.7129 14.6805C49.9857 13.9593 49.6221 13.0665 49.6221 12.0009C49.6221 10.9341 49.9857 10.0413 50.7129 9.32134C51.4389 8.60014 52.3233 8.24014 53.3625 8.24014C53.8785 8.24014 54.3717 8.34094 54.8397 8.54134C55.3089 8.74294 55.6845 9.01054 55.9653 9.34534L55.3329 9.97894C54.8565 9.40894 54.2001 9.12454 53.3613 9.12454C52.6029 9.12454 51.9477 9.39094 51.3945 9.92374C50.8413 10.4565 50.5653 11.1489 50.5653 11.9997C50.5653 12.8505 50.8413 13.5429 51.3945 14.0757C51.9477 14.6085 52.6029 14.8749 53.3613 14.8749C54.1653 14.8749 54.8361 14.6073 55.3725 14.0709C55.7205 13.7217 55.9221 13.2357 55.9761 12.6129H53.3613V11.7477H56.8497C56.8857 11.9361 56.9013 12.1173 56.9013 12.2913Z" fill="white"/>
  <path d="M62.4334 9.2842H59.155V11.5666H62.1118V12.4318H59.155V14.7142H62.4334V15.5998H58.2298V8.3998H62.4334V9.2842Z" fill="white"/>
  <path d="M66.3344 15.5998H65.4092V9.2842H63.398V8.3998H68.3456V9.2842H66.3344V15.5998Z" fill="white"/>
  <path d="M71.9252 15.5998V8.3998H72.8504V15.5998H71.9252Z" fill="white"/>
  <path d="M76.9534 15.5998H76.0282V9.2842H74.017V8.3998H78.9646V9.2842H76.9534V15.5998Z" fill="white"/>
  <path d="M88.3303 14.6698C87.6223 15.397 86.7427 15.7606 85.6903 15.7606C84.6379 15.7606 83.7583 15.397 83.0515 14.6698C82.3435 13.9426 81.9907 13.0522 81.9907 11.9998C81.9907 10.9474 82.3435 10.057 83.0515 9.32979C83.7583 8.60259 84.6379 8.23779 85.6903 8.23779C86.7367 8.23779 87.6151 8.60379 88.3255 9.33459C89.0359 10.0654 89.3911 10.9534 89.3911 11.9998C89.3911 13.0522 89.0371 13.9426 88.3303 14.6698ZM83.7343 14.0662C84.2671 14.6062 84.9187 14.875 85.6903 14.875C86.4619 14.875 87.1147 14.605 87.6463 14.0662C88.1791 13.5262 88.4467 12.8374 88.4467 11.9998C88.4467 11.1622 88.1791 10.4734 87.6463 9.93339C87.1147 9.39339 86.4619 9.12459 85.6903 9.12459C84.9187 9.12459 84.2671 9.39459 83.7343 9.93339C83.2027 10.4734 82.9351 11.1622 82.9351 11.9998C82.9351 12.8374 83.2027 13.5262 83.7343 14.0662Z" fill="white"/>
  <path d="M90.6895 15.5998V8.3998H91.8151L95.3143 14.0002H95.3539L95.3143 12.613V8.3998H96.2395V15.5998H95.2735L91.6124 9.72701H91.5727L91.6124 11.1142V15.5998H90.6895Z" fill="white"/>
  <path d="M56.9013 12.2913C56.9013 13.2969 56.6037 14.0973 56.0073 14.6949C55.3305 15.4053 54.4473 15.7605 53.3625 15.7605C52.3233 15.7605 51.4389 15.4005 50.7129 14.6805C49.9857 13.9593 49.6221 13.0665 49.6221 12.0009C49.6221 10.9341 49.9857 10.0413 50.7129 9.32134C51.4389 8.60014 52.3233 8.24014 53.3625 8.24014C53.8785 8.24014 54.3717 8.34094 54.8397 8.54134C55.3089 8.74294 55.6845 9.01054 55.9653 9.34534L55.3329 9.97894C54.8565 9.40894 54.2001 9.12454 53.3613 9.12454C52.6029 9.12454 51.9477 9.39094 51.3945 9.92374C50.8413 10.4565 50.5653 11.1489 50.5653 11.9997C50.5653 12.8505 50.8413 13.5429 51.3945 14.0757C51.9477 14.6085 52.6029 14.8749 53.3613 14.8749C54.1653 14.8749 54.8361 14.6073 55.3725 14.0709C55.7205 13.7217 55.9221 13.2357 55.9761 12.6129H53.3613V11.7477H56.8497C56.8857 11.9361 56.9013 12.1173 56.9013 12.2913Z" stroke="white" stroke-width="0.2" stroke-miterlimit="10"/>
  <path d="M62.4334 9.2842H59.155V11.5666H62.1118V12.4318H59.155V14.7142H62.4334V15.5998H58.2298V8.3998H62.4334V9.2842Z" stroke="white" stroke-width="0.2" stroke-miterlimit="10"/>
  <path d="M66.3344 15.5998H65.4092V9.2842H63.398V8.3998H68.3456V9.2842H66.3344V15.5998Z" stroke="white" stroke-width="0.2" stroke-miterlimit="10"/>
  <path d="M71.9252 15.5998V8.3998H72.8504V15.5998H71.9252Z" stroke="white" stroke-width="0.2" stroke-miterlimit="10"/>
  <path d="M76.9534 15.5998H76.0282V9.2842H74.017V8.3998H78.9646V9.2842H76.9534V15.5998Z" stroke="white" stroke-width="0.2" stroke-miterlimit="10"/>
  <path d="M88.3303 14.6698C87.6223 15.397 86.7427 15.7606 85.6903 15.7606C84.6379 15.7606 83.7583 15.397 83.0515 14.6698C82.3435 13.9426 81.9907 13.0522 81.9907 11.9998C81.9907 10.9474 82.3435 10.057 83.0515 9.32979C83.7583 8.60259 84.6379 8.23779 85.6903 8.23779C86.7367 8.23779 87.6151 8.60379 88.3255 9.33459C89.0359 10.0654 89.3911 10.9534 89.3911 11.9998C89.3911 13.0522 89.0371 13.9426 88.3303 14.6698ZM83.7343 14.0662C84.2671 14.6062 84.9187 14.875 85.6903 14.875C86.4619 14.875 87.1147 14.605 87.6463 14.0662C88.1791 13.5262 88.4467 12.8374 88.4467 11.9998C88.4467 11.1622 88.1791 10.4734 87.6463 9.93339C87.1147 9.39339 86.4619 9.12459 85.6903 9.12459C84.9187 9.12459 84.2671 9.39459 83.7343 9.93339C83.2027 10.4734 82.9351 11.1622 82.9351 11.9998C82.9351 12.8374 83.2027 13.5262 83.7343 14.0662Z" stroke="white" stroke-width="0.2" stroke-miterlimit="10"/>
  <path d="M90.6895 15.5998V8.3998H91.8151L95.3143 14.0002H95.3539L95.3143 12.613V8.3998H96.2395V15.5998H95.2735L91.6124 9.72701H91.5727L91.6124 11.1142V15.5998H90.6895Z" stroke="white" stroke-width="0.2" stroke-miterlimit="10"/>
  <g filter="url(#filter0_ii_42_2173)">
    <path d="M12.5234 9.04561C12.1742 9.41521 11.9678 9.98881 11.9678 10.7316V37.2708C11.9678 38.0148 12.1742 38.5872 12.5234 38.9568L12.6122 39.0432L27.479 24.1764V24.0012V23.826L12.6122 8.95801L12.5234 9.04561Z" fill="url(#paint0_linear_42_2173)"/>
    <path d="M32.4343 29.1337L27.4795 24.1765V24.0013V23.8261L32.4355 18.8701L32.5471 18.9337L38.4187 22.2697C40.0951 23.2225 40.0951 24.7813 38.4187 25.7353L32.5471 29.0713L32.4343 29.1337Z" fill="url(#paint1_linear_42_2173)"/>
    <g filter="url(#filter1_i_42_2173)">
      <path d="M32.5466 29.0698L27.4778 24.001L12.5234 38.9566C13.0754 39.5422 13.9886 39.6142 15.017 39.031L32.5466 29.0698Z" fill="url(#paint2_linear_42_2173)"/>
    </g>
    <path d="M32.5466 18.9321L15.017 8.97214C13.9886 8.38774 13.0754 8.46094 12.5234 9.04654L27.479 24.0021L32.5466 18.9321Z" fill="url(#paint3_linear_42_2173)"/>
  </g>
  <defs>
    <filter id="filter0_ii_42_2173" x="11.9678" y="8.56885" width="27.708" height="30.8647" filterUnits="userSpaceOnUse" color-interpolation-filters="sRGB">
      <feFlood flood-opacity="0" result="BackgroundImageFix"/>
      <feBlend mode="normal" in="SourceGraphic" in2="BackgroundImageFix" result="shape"/>
      <feColorMatrix in="SourceAlpha" type="matrix" values="0 0 0 0 0 0 0 0 0 0 0 0 0 0 0 0 0 0 127 0" result="hardAlpha"/>
      <feOffset dy="-0.15"/>
      <feComposite in2="hardAlpha" operator="arithmetic" k2="-1" k3="1"/>
      <feColorMatrix type="matrix" values="0 0 0 0 0 0 0 0 0 0 0 0 0 0 0 0 0 0 0.12 0"/>
      <feBlend mode="normal" in2="shape" result="effect1_innerShadow_42_2173"/>
      <feColorMatrix in="SourceAlpha" type="matrix" values="0 0 0 0 0 0 0 0 0 0 0 0 0 0 0 0 0 0 127 0" result="hardAlpha"/>
      <feOffset dy="0.15"/>
      <feComposite in2="hardAlpha" operator="arithmetic" k2="-1" k3="1"/>
      <feColorMatrix type="matrix" values="0 0 0 0 1 0 0 0 0 1 0 0 0 0 1 0 0 0 0.25 0"/>
      <feBlend mode="normal" in2="effect1_innerShadow_42_2173" result="effect2_innerShadow_42_2173"/>
    </filter>
    <filter id="filter1_i_42_2173" x="12.5234" y="24.001" width="20.0234" height="15.4326" filterUnits="userSpaceOnUse" color-interpolation-filters="sRGB">
      <feFlood flood-opacity="0" result="BackgroundImageFix"/>
      <feBlend mode="normal" in="SourceGraphic" in2="BackgroundImageFix" result="shape"/>
      <feColorMatrix in="SourceAlpha" type="matrix" values="0 0 0 0 0 0 0 0 0 0 0 0 0 0 0 0 0 0 127 0" result="hardAlpha"/>
      <feOffset dy="-0.15"/>
      <feComposite in2="hardAlpha" operator="arithmetic" k2="-1" k3="1"/>
      <feColorMatrix type="matrix" values="0 0 0 0 0 0 0 0 0 0 0 0 0 0 0 0 0 0 0.08 0"/>
      <feBlend mode="normal" in2="shape" result="effect1_innerShadow_42_2173"/>
    </filter>
    <linearGradient id="paint0_linear_42_2173" x1="26.1611" y1="10.4508" x2="6.02274" y2="30.5892" gradientUnits="userSpaceOnUse">
      <stop stop-color="#00A0FF"/>
      <stop offset="0.0066" stop-color="#00A1FF"/>
      <stop offset="0.2601" stop-color="#00BEFF"/>
      <stop offset="0.5122" stop-color="#00D2FF"/>
      <stop offset="0.7604" stop-color="#00DFFF"/>
      <stop offset="1" stop-color="#00E3FF"/>
    </linearGradient>
    <linearGradient id="paint1_linear_42_2173" x1="40.6009" y1="24.0013" x2="11.5658" y2="24.0013" gradientUnits="userSpaceOnUse">
      <stop stop-color="#FFE000"/>
      <stop offset="0.4087" stop-color="#FFBD00"/>
      <stop offset="0.7754" stop-color="#FFA500"/>
      <stop offset="1" stop-color="#FF9C00"/>
    </linearGradient>
    <linearGradient id="paint2_linear_42_2173" x1="29.794" y1="26.7537" x2="2.48377" y2="54.0639" gradientUnits="userSpaceOnUse">
      <stop stop-color="#FF3A44"/>
      <stop offset="1" stop-color="#C31162"/>
    </linearGradient>
    <linearGradient id="paint3_linear_42_2173" x1="8.75712" y1="0.211898" x2="20.9519" y2="12.4067" gradientUnits="userSpaceOnUse">
      <stop stop-color="#32A071"/>
      <stop offset="0.0685" stop-color="#2DA771"/>
      <stop offset="0.4762" stop-color="#15CF74"/>
      <stop offset="0.8009" stop-color="#06E775"/>
      <stop offset="1" stop-color="#00F076"/>
    </linearGradient>
  </defs>
</svg>